<?xml version="1.0" standalone="no"?>
<!DOCTYPE svg PUBLIC "-//W3C//DTD SVG 20010904//EN"
 "http://www.w3.org/TR/2001/REC-SVG-20010904/DTD/svg10.dtd">
<svg version="1.0" xmlns="http://www.w3.org/2000/svg"
 width="180.000000pt" height="180.000000pt" viewBox="0 0 180.000000 180.000000"
 preserveAspectRatio="xMidYMid meet">

<g transform="translate(0.000000,180.000000) scale(0.100000,-0.100000)"
fill="#000000" stroke="none">
<path d="M800 1527 c-41 -24 -168 -97 -282 -162 l-208 -118 0 -149 0 -150 33
20 c109 67 431 252 438 252 5 0 10 -93 11 -207 l3 -206 48 -30 c26 -16 51 -27
54 -24 8 8 -8 817 -16 817 -3 0 -40 -19 -81 -43z"/>
<path d="M510 966 l-185 -111 -3 -137 -3 -137 68 -37 c37 -20 93 -51 123 -69
30 -18 77 -45 103 -59 l48 -27 -2 141 -1 141 -39 19 c-21 11 -39 25 -39 30 0
5 29 25 65 45 l65 37 0 133 c0 74 -3 136 -7 138 -5 2 -91 -46 -193 -107z"/>
<path d="M1187 693 l-37 -23 0 -139 0 -140 98 56 c53 31 124 71 157 89 33 18
61 36 62 41 2 5 -20 21 -49 36 -29 15 -85 44 -123 65 l-71 39 -37 -24z"/>
</g>
</svg>
